<svg width="18" height="18" viewBox="0 0 18 18" fill="none" xmlns="http://www.w3.org/2000/svg">
<path fill-rule="evenodd" clip-rule="evenodd" d="M8.99999 0.041626C5.43315 0.041626 2.54166 2.93312 2.54166 6.49996V7.08671C2.54166 7.66748 2.36975 8.23525 2.0476 8.71848L1.09043 10.1542C-0.0204839 11.8206 0.827606 14.0856 2.75977 14.6126C3.38944 14.7843 4.02444 14.9296 4.66311 15.0484L4.66469 15.0526C5.30552 16.7625 7.01828 17.9583 8.99994 17.9583C10.9816 17.9583 12.6944 16.7625 13.3352 15.0526L13.3368 15.0484C13.9755 14.9296 14.6105 14.7843 15.2402 14.6126C17.1724 14.0856 18.0205 11.8206 16.9096 10.1542L15.9524 8.71848C15.6302 8.23525 15.4583 7.66748 15.4583 7.08671V6.49996C15.4583 2.93312 12.5668 0.041626 8.99999 0.041626ZM11.8137 15.2808C9.94454 15.5041 8.05533 15.5041 6.1862 15.2808C6.77866 16.132 7.80914 16.7083 8.99994 16.7083C10.1907 16.7083 11.2212 16.132 11.8137 15.2808ZM3.79166 6.49996C3.79166 3.62348 6.12351 1.29163 8.99999 1.29163C11.8765 1.29163 14.2083 3.62348 14.2083 6.49996V7.08671C14.2083 7.91426 14.4533 8.7233 14.9123 9.41186L15.8695 10.8476C16.5071 11.8041 16.0203 13.1042 14.9113 13.4066C11.0411 14.4621 6.95887 14.4621 3.08866 13.4066C1.97964 13.1042 1.49285 11.8041 2.13049 10.8476L3.08766 9.41186C3.5467 8.72329 3.79166 7.91426 3.79166 7.08671V6.49996Z" fill="#4483FD"/>
</svg>
