<svg width="18" height="18" viewBox="0 0 18 18" fill="none" xmlns="http://www.w3.org/2000/svg">
<path fill-rule="evenodd" clip-rule="evenodd" d="M5.87496 6.49996C5.87496 4.77407 7.27407 3.37496 8.99996 3.37496C10.7259 3.37496 12.125 4.77407 12.125 6.49996C12.125 8.22585 10.7259 9.62496 8.99996 9.62496C7.27407 9.62496 5.87496 8.22585 5.87496 6.49996ZM8.99996 4.62496C7.96443 4.62496 7.12496 5.46443 7.12496 6.49996C7.12496 7.53549 7.96443 8.37496 8.99996 8.37496C10.0355 8.37496 10.875 7.53549 10.875 6.49996C10.875 5.46443 10.0355 4.62496 8.99996 4.62496Z" fill="#4483FD"/>
<path fill-rule="evenodd" clip-rule="evenodd" d="M0.041626 8.99996C0.041626 4.05241 4.05241 0.041626 8.99996 0.041626C13.9475 0.041626 17.9583 4.05241 17.9583 8.99996C17.9583 13.9475 13.9475 17.9583 8.99996 17.9583C4.05241 17.9583 0.041626 13.9475 0.041626 8.99996ZM8.99996 1.29163C4.74276 1.29163 1.29163 4.74276 1.29163 8.99996C1.29163 11.1213 2.14852 13.0425 3.53505 14.4362C3.68537 13.6253 3.98074 12.8607 4.5736 12.2459C5.4604 11.3262 6.87843 10.875 8.99992 10.875C11.1214 10.875 12.5394 11.3262 13.4262 12.2459C14.0191 12.8607 14.3145 13.6253 14.4648 14.4363C15.8514 13.0425 16.7083 11.1213 16.7083 8.99996C16.7083 4.74276 13.2572 1.29163 8.99996 1.29163ZM13.328 15.3795C13.2431 14.3695 13.0238 13.6294 12.5264 13.1135C11.9852 12.5523 10.9824 12.125 8.99992 12.125C7.01745 12.125 6.01464 12.5523 5.47341 13.1135C4.97602 13.6294 4.75672 14.3695 4.67181 15.3794C5.90566 16.2181 7.39557 16.7083 8.99996 16.7083C10.6043 16.7083 12.0942 16.2182 13.328 15.3795Z" fill="#4483FD"/>
</svg>
