<svg width="75" height="60" viewBox="0 0 75 60" fill="none" xmlns="http://www.w3.org/2000/svg">
<rect x="0.666687" y="43" width="8" height="17" rx="4" fill="#F2994A"/>
<rect x="0.666687" y="50" width="8" height="10" rx="4" fill="#6FCF97"/>
<rect x="11.6667" y="13" width="8" height="47" rx="4" fill="#F2994A"/>
<rect x="11.6667" y="43" width="8" height="17" rx="4" fill="#6FCF97"/>
<rect x="22.6667" y="33" width="8" height="27" rx="4" fill="#6FCF97"/>
<rect x="22.6667" y="50" width="8" height="10" rx="4" fill="#F2994A"/>
<rect x="33.6667" y="46" width="8" height="14" rx="4" fill="#F2994A"/>
<rect x="33.6667" y="56" width="8" height="4" rx="2" fill="#6FCF97"/>
<rect x="44.6667" y="32" width="8" height="28" rx="4" fill="#6FCF97"/>
<rect x="44.6667" y="44" width="8" height="16" rx="4" fill="#F2994A"/>
<rect x="55.6667" y="4" width="8" height="56" rx="4" fill="#F2994A"/>
<rect x="55.6667" y="17" width="8" height="43" rx="4" fill="#6FCF97"/>
<rect x="66.6667" y="26" width="8" height="34" rx="4" fill="#F2994A"/>
<rect x="66.6667" y="45" width="8" height="15" rx="4" fill="#6FCF97"/>
</svg>
