<svg width="18" height="16" viewBox="0 0 18 16" fill="none" xmlns="http://www.w3.org/2000/svg">
<path d="M14.8327 8.00004C14.8327 8.46028 14.4596 8.83338 13.9993 8.83338C13.5391 8.83338 13.166 8.46028 13.166 8.00004C13.166 7.5398 13.5391 7.16671 13.9993 7.16671C14.4596 7.16671 14.8327 7.5398 14.8327 8.00004Z" fill="#4483FD"/>
<path fill-rule="evenodd" clip-rule="evenodd" d="M7.28567 0.708374H9.8797C11.4112 0.708361 12.6242 0.708351 13.5735 0.835987C14.5506 0.967343 15.3413 1.24411 15.965 1.86774C16.7353 2.63807 16.9808 3.66973 17.0699 5.00844C17.551 5.22012 17.9142 5.66779 17.9542 6.23487C17.9578 6.28503 17.9577 6.3391 17.9577 6.38922C17.9577 6.39379 17.9577 6.39832 17.9577 6.40282V9.59726C17.9577 9.60176 17.9577 9.6063 17.9577 9.61087C17.9577 9.66099 17.9578 9.71505 17.9542 9.76522C17.9142 10.3323 17.551 10.78 17.0699 10.9917C16.9808 12.3304 16.7353 13.362 15.965 14.1323C15.3413 14.756 14.5506 15.0327 13.5735 15.1641C12.6242 15.2917 11.4112 15.2917 9.87969 15.2917H7.28567C5.75421 15.2917 4.54118 15.2917 3.59183 15.1641C2.61481 15.0327 1.82402 14.756 1.20039 14.1323C0.576749 13.5087 0.299985 12.7179 0.168628 11.7409C0.0409922 10.7916 0.0410027 9.57852 0.0410159 8.04706V7.95303C0.0410027 6.42156 0.0409922 5.20853 0.168628 4.25919C0.299985 3.28217 0.576749 2.49138 1.20038 1.86774C1.82402 1.24411 2.61481 0.967344 3.59183 0.835987C4.54117 0.708351 5.7542 0.708361 7.28567 0.708374ZM15.8059 11.125H14.1917C12.404 11.125 10.8743 9.76874 10.8743 8.00004C10.8743 6.23134 12.404 4.87504 14.1917 4.87504H15.8059C15.7111 3.75716 15.4965 3.16707 15.0811 2.75163C14.7284 2.39895 14.2454 2.18756 13.407 2.07484C12.5506 1.9597 11.4217 1.95837 9.83268 1.95837H7.33268C5.74367 1.95837 4.61478 1.9597 3.75839 2.07484C2.91998 2.18756 2.43694 2.39895 2.08427 2.75163C1.73159 3.1043 1.5202 3.58734 1.40748 4.42575C1.29234 5.28214 1.29102 6.41103 1.29102 8.00004C1.29102 9.58906 1.29234 10.7179 1.40748 11.5743C1.5202 12.4127 1.73159 12.8958 2.08427 13.2485C2.43694 13.6011 2.91998 13.8125 3.75839 13.9252C4.61478 14.0404 5.74367 14.0417 7.33268 14.0417H9.83268C11.4217 14.0417 12.5506 14.0404 13.407 13.9252C14.2454 13.8125 14.7284 13.6011 15.0811 13.2485C15.4965 12.833 15.7111 12.2429 15.8059 11.125ZM3.37435 4.66671C3.37435 4.32153 3.65417 4.04171 3.99935 4.04171H7.33268C7.67786 4.04171 7.95768 4.32153 7.95768 4.66671C7.95768 5.01189 7.67786 5.29171 7.33268 5.29171H3.99935C3.65417 5.29171 3.37435 5.01189 3.37435 4.66671ZM16.4356 6.12523C16.4187 6.12505 16.3965 6.12504 16.3605 6.12504H14.1917C13.0055 6.12504 12.1243 7.00732 12.1243 8.00004C12.1243 8.99276 13.0055 9.87504 14.1917 9.87504H16.3605C16.3965 9.87504 16.4187 9.87503 16.4356 9.87485C16.446 9.87474 16.4515 9.87459 16.4541 9.8745L16.456 9.87441C16.6277 9.86396 16.7016 9.74801 16.7072 9.67829C16.7072 9.67829 16.7074 9.67304 16.7075 9.66552C16.7077 9.65073 16.7077 9.63102 16.7077 9.59726V6.40282C16.7077 6.36906 16.7077 6.34935 16.7075 6.33456C16.7074 6.32703 16.7072 6.32179 16.7072 6.32179C16.7016 6.25206 16.6277 6.13613 16.456 6.12567C16.456 6.12567 16.4518 6.1254 16.4356 6.12523Z" fill="#4483FD"/>
</svg>
