<svg width="18" height="18" viewBox="0 0 18 18" fill="none" xmlns="http://www.w3.org/2000/svg">
<path d="M10.4587 7.33329C10.4587 7.67847 10.7385 7.95829 11.0837 7.95829H11.6581L9.98097 9.63543C9.89961 9.71679 9.7677 9.71679 9.68635 9.63543L8.36486 8.31394C7.79534 7.74443 6.87198 7.74443 6.30246 8.31394L4.39172 10.2247C4.14764 10.4688 4.14764 10.8645 4.39172 11.1086C4.6358 11.3526 5.03152 11.3526 5.2756 11.1086L7.18635 9.19782C7.2677 9.11646 7.39961 9.11646 7.48097 9.19782L8.80246 10.5193C9.37198 11.0888 10.2953 11.0888 10.8649 10.5193L12.542 8.84218V9.41663C12.542 9.7618 12.8218 10.0416 13.167 10.0416C13.5122 10.0416 13.792 9.7618 13.792 9.41663V7.33329C13.792 6.98812 13.5122 6.70829 13.167 6.70829H11.0837C10.7385 6.70829 10.4587 6.98812 10.4587 7.33329Z" fill="#4483FD"/>
<path fill-rule="evenodd" clip-rule="evenodd" d="M8.95251 0.0416262C7.02885 0.0416154 5.52132 0.0416069 4.34508 0.199748C3.14113 0.361615 2.19111 0.699398 1.44544 1.44507C0.699764 2.19075 0.361981 3.14077 0.200114 4.34471C0.0419731 5.52095 0.0419816 7.02848 0.0419924 8.95214V9.04777C0.0419816 10.9714 0.0419731 12.479 0.200114 13.6552C0.361981 14.8592 0.699764 15.8092 1.44544 16.5548C2.19111 17.3005 3.14113 17.6383 4.34508 17.8002C5.52132 17.9583 7.02885 17.9583 8.95252 17.9583H9.04814C10.9718 17.9583 12.4793 17.9583 13.6556 17.8002C14.8595 17.6383 15.8095 17.3005 16.5552 16.5548C17.3009 15.8092 17.6387 14.8592 17.8005 13.6552C17.9587 12.479 17.9587 10.9714 17.9587 9.04777V8.95215C17.9587 7.02849 17.9587 5.52095 17.8005 4.34471C17.6387 3.14077 17.3009 2.19075 16.5552 1.44507C15.8095 0.699398 14.8595 0.361615 13.6556 0.199748C12.4793 0.0416069 10.9718 0.0416154 9.04814 0.0416262H8.95251ZM2.32932 2.32896C2.80404 1.85424 3.4463 1.58183 4.51164 1.4386C5.59496 1.29295 7.01847 1.29163 9.00033 1.29163C10.9822 1.29163 12.4057 1.29295 13.489 1.4386C14.5543 1.58183 15.1966 1.85424 15.6713 2.32896C16.146 2.80367 16.4185 3.44594 16.5617 4.51127C16.7073 5.59459 16.7087 7.01811 16.7087 8.99996C16.7087 10.9818 16.7073 12.4053 16.5617 13.4886C16.4185 14.554 16.146 15.1962 15.6713 15.671C15.1966 16.1457 14.5543 16.4181 13.489 16.5613C12.4057 16.707 10.9822 16.7083 9.00033 16.7083C7.01847 16.7083 5.59496 16.707 4.51164 16.5613C3.4463 16.4181 2.80404 16.1457 2.32932 15.671C1.85461 15.1962 1.5822 14.554 1.43897 13.4886C1.29332 12.4053 1.29199 10.9818 1.29199 8.99996C1.29199 7.01811 1.29332 5.59459 1.43897 4.51127C1.5822 3.44594 1.85461 2.80367 2.32932 2.32896Z" fill="#4483FD"/>
</svg>
