<svg width="18" height="18" viewBox="0 0 18 18" fill="none" xmlns="http://www.w3.org/2000/svg">
<path fill-rule="evenodd" clip-rule="evenodd" d="M8.11965 0.0417483H9.88035C11.4118 0.0417351 12.6248 0.0417246 13.5742 0.169361C14.5512 0.300717 15.342 0.577482 15.9656 1.20112C16.5893 1.82475 16.866 2.61554 16.9974 3.59256C17.125 4.54191 17.125 5.75494 17.125 7.28641V10.7138C17.125 12.2452 17.125 13.4583 16.9974 14.4076C16.866 15.3846 16.5893 16.1754 15.9656 16.799C15.342 17.4227 14.5512 17.6994 13.5742 17.8308C12.6248 17.9584 11.4118 17.9584 9.88034 17.9584H8.11966C6.58819 17.9584 5.37516 17.9584 4.42581 17.8308C3.4488 17.6994 2.65801 17.4227 2.03437 16.799C1.41073 16.1754 1.13397 15.3846 1.00261 14.4076C0.874977 13.4583 0.874987 12.2452 0.875 10.7138V7.2864C0.874987 5.75493 0.874977 4.54191 1.00261 3.59256C1.13397 2.61554 1.41073 1.82475 2.03437 1.20112C2.65801 0.577482 3.4488 0.300717 4.42581 0.169361C5.37516 0.0417246 6.58819 0.0417351 8.11965 0.0417483ZM4.59237 1.40821C3.75397 1.52094 3.27093 1.73233 2.91825 2.085C2.56558 2.43768 2.35419 2.92071 2.24147 3.75912C2.12633 4.61551 2.125 5.7444 2.125 7.33341V10.6667C2.125 12.2558 2.12633 13.3847 2.24147 14.241C2.35419 15.0794 2.56558 15.5625 2.91825 15.9152C3.27093 16.2678 3.75397 16.4792 4.59237 16.5919C5.44876 16.7071 6.57765 16.7084 8.16667 16.7084H9.83333C11.4224 16.7084 12.5512 16.7071 13.4076 16.5919C14.246 16.4792 14.7291 16.2678 15.0817 15.9152C15.4344 15.5625 15.6458 15.0794 15.7585 14.241C15.8737 13.3847 15.875 12.2558 15.875 10.6667V7.33342C15.875 5.7444 15.8737 4.61551 15.7585 3.75912C15.6458 2.92071 15.4344 2.43768 15.0817 2.085C14.7291 1.73233 14.246 1.52094 13.4076 1.40821C12.5512 1.29308 11.4224 1.29175 9.83333 1.29175H8.16667C6.57765 1.29175 5.44876 1.29308 4.59237 1.40821ZM5.04167 7.33342C5.04167 6.98824 5.32149 6.70842 5.66667 6.70842H12.3333C12.6785 6.70842 12.9583 6.98824 12.9583 7.33342C12.9583 7.67859 12.6785 7.95842 12.3333 7.95842H5.66667C5.32149 7.95842 5.04167 7.67859 5.04167 7.33342ZM5.04167 10.6667C5.04167 10.3216 5.32149 10.0417 5.66667 10.0417H9.83333C10.1785 10.0417 10.4583 10.3216 10.4583 10.6667C10.4583 11.0119 10.1785 11.2917 9.83333 11.2917H5.66667C5.32149 11.2917 5.04167 11.0119 5.04167 10.6667Z" fill="#4483FD"/>
</svg>
