<svg width="18" height="18" viewBox="0 0 18 18" fill="none" xmlns="http://www.w3.org/2000/svg">
<path fill-rule="evenodd" clip-rule="evenodd" d="M3.95602 0.458375C3.2073 0.458351 2.58293 0.458331 2.08729 0.524969C1.56412 0.595307 1.09179 0.750032 0.712232 1.12959C0.332674 1.50915 0.177948 1.98148 0.107611 2.50464C0.0409731 3.00029 0.0409928 3.62463 0.0410165 4.37335V6.12671C0.0409928 6.87543 0.0409731 7.4998 0.107611 7.99544C0.177948 8.51861 0.332674 8.99094 0.712232 9.3705C1.09179 9.75005 1.56412 9.90478 2.08729 9.97512C2.58293 10.0418 3.20727 10.0417 3.956 10.0417H4.04268C4.7914 10.0417 5.41577 10.0418 5.91142 9.97512C6.43458 9.90478 6.90691 9.75005 7.28647 9.3705C7.66603 8.99094 7.82075 8.51861 7.89109 7.99544C7.95773 7.4998 7.95771 6.87545 7.95769 6.12673V4.37338C7.95771 3.62466 7.95773 3.00029 7.89109 2.50464C7.82075 1.98148 7.66603 1.50915 7.28647 1.12959C6.90691 0.750032 6.43458 0.595307 5.91142 0.524969C5.41577 0.458331 4.79143 0.458351 4.04271 0.458375H3.95602ZM1.59612 2.01347C1.70471 1.90488 1.86929 1.81552 2.25384 1.76382C2.65638 1.7097 3.19601 1.70838 3.99935 1.70838C4.80269 1.70838 5.34233 1.7097 5.74486 1.76382C6.12941 1.81552 6.29399 1.90488 6.40259 2.01347C6.51119 2.12207 6.60054 2.28665 6.65224 2.6712C6.70636 3.07373 6.70768 3.61337 6.70768 4.41671V6.08338C6.70768 6.88672 6.70636 7.42635 6.65224 7.82888C6.60054 8.21344 6.51119 8.37802 6.40259 8.48661C6.29399 8.59521 6.12941 8.68456 5.74486 8.73626C5.34233 8.79038 4.80269 8.79171 3.99935 8.79171C3.19601 8.79171 2.65638 8.79038 2.25385 8.73626C1.86929 8.68456 1.70471 8.59521 1.59612 8.48661C1.48752 8.37802 1.39817 8.21344 1.34646 7.82888C1.29235 7.42635 1.29102 6.88672 1.29102 6.08338V4.41671C1.29102 3.61337 1.29235 3.07373 1.34646 2.6712C1.39817 2.28665 1.48752 2.12207 1.59612 2.01347Z" fill="#4483FD"/>
<path fill-rule="evenodd" clip-rule="evenodd" d="M13.5394 7.95838C12.7906 7.95835 12.1663 7.95833 11.6706 8.02497C11.1475 8.09531 10.6751 8.25003 10.2956 8.62959C9.91601 9.00915 9.76128 9.48148 9.69094 10.0046C9.62431 10.5003 9.62433 11.1246 9.62435 11.8734V13.6267C9.62433 14.3754 9.62431 14.9998 9.69094 15.4954C9.76128 16.0186 9.91601 16.4909 10.2956 16.8705C10.6751 17.2501 11.1475 17.4048 11.6706 17.4751C12.1663 17.5418 12.7906 17.5417 13.5393 17.5417H13.626C14.3747 17.5417 14.9991 17.5418 15.4948 17.4751C16.0179 17.4048 16.4902 17.2501 16.8698 16.8705C17.2494 16.4909 17.4041 16.0186 17.4744 15.4954C17.5411 14.9998 17.541 14.3755 17.541 13.6268V11.8734C17.541 11.1247 17.5411 10.5003 17.4744 10.0046C17.4041 9.48148 17.2494 9.00915 16.8698 8.62959C16.4902 8.25003 16.0179 8.09531 15.4948 8.02497C14.9991 7.95833 14.3748 7.95835 13.626 7.95838H13.5394ZM11.1794 9.51347C11.288 9.40488 11.4526 9.31553 11.8372 9.26382C12.2397 9.2097 12.7793 9.20838 13.5827 9.20838C14.386 9.20838 14.9257 9.2097 15.3282 9.26382C15.7127 9.31553 15.8773 9.40488 15.9859 9.51347C16.0945 9.62207 16.1839 9.78665 16.2356 10.1712C16.2897 10.5737 16.291 11.1134 16.291 11.9167V13.5834C16.291 14.3867 16.2897 14.9264 16.2356 15.3289C16.1839 15.7134 16.0945 15.878 15.9859 15.9866C15.8773 16.0952 15.7127 16.1846 15.3282 16.2363C14.9257 16.2904 14.386 16.2917 13.5827 16.2917C12.7793 16.2917 12.2397 16.2904 11.8372 16.2363C11.4526 16.1846 11.288 16.0952 11.1794 15.9866C11.0709 15.878 10.9815 15.7134 10.9298 15.3289C10.8757 14.9264 10.8744 14.3867 10.8744 13.5834V11.9167C10.8744 11.1134 10.8757 10.5737 10.9298 10.1712C10.9815 9.78665 11.0709 9.62207 11.1794 9.51347Z" fill="#4483FD"/>
<path fill-rule="evenodd" clip-rule="evenodd" d="M12.7283 0.458375H14.4371C14.8074 0.45837 15.1167 0.458366 15.3705 0.475685C15.6347 0.493714 15.8843 0.532584 16.1263 0.632819C16.6879 0.86541 17.134 1.31154 17.3666 1.87306C17.4668 2.11505 17.5057 2.36466 17.5237 2.62891C17.541 2.88275 17.541 3.19195 17.541 3.56233V3.60442C17.541 3.97481 17.541 4.284 17.5237 4.53785C17.5057 4.8021 17.4668 5.0517 17.3666 5.29369C17.134 5.85522 16.6879 6.30134 16.1263 6.53393C15.8843 6.63417 15.6347 6.67304 15.3705 6.69107C15.1166 6.70839 14.8075 6.70838 14.4371 6.70838H12.7283C12.3579 6.70838 12.0487 6.70839 11.7949 6.69107C11.5306 6.67304 11.281 6.63417 11.039 6.53393C10.4775 6.30134 10.0314 5.85522 9.79879 5.29369C9.69856 5.0517 9.65969 4.8021 9.64166 4.53785C9.62434 4.284 9.62435 3.9748 9.62435 3.60442V3.56233C9.62435 3.19195 9.62434 2.88275 9.64166 2.62891C9.65969 2.36466 9.69856 2.11505 9.79879 1.87306C10.0314 1.31154 10.4775 0.86541 11.039 0.632819C11.281 0.532584 11.5306 0.493714 11.7949 0.475685C12.0487 0.458366 12.358 0.45837 12.7283 0.458375ZM11.88 1.72279C11.6794 1.73647 11.5817 1.76104 11.5174 1.78767C11.2622 1.89339 11.0594 2.09618 10.9536 2.35141C10.927 2.41571 10.9024 2.51339 10.8888 2.714C10.8747 2.92021 10.8744 3.18654 10.8744 3.58338C10.8744 3.98021 10.8747 4.24654 10.8888 4.45276C10.9024 4.65336 10.927 4.75104 10.9536 4.81534C11.0594 5.07058 11.2622 5.27336 11.5174 5.37908C11.5817 5.40572 11.6794 5.43028 11.88 5.44397C12.0862 5.45804 12.3525 5.45838 12.7494 5.45838H14.416C14.8129 5.45838 15.0792 5.45804 15.2854 5.44397C15.486 5.43028 15.5837 5.40572 15.648 5.37908C15.9032 5.27336 16.106 5.07058 16.2117 4.81534C16.2384 4.75104 16.2629 4.65336 16.2766 4.45276C16.2907 4.24654 16.291 3.98021 16.291 3.58338C16.291 3.18654 16.2907 2.92021 16.2766 2.714C16.2629 2.51339 16.2384 2.41571 16.2117 2.35141C16.106 2.09618 15.9032 1.89339 15.648 1.78767C15.5837 1.76104 15.486 1.73647 15.2854 1.72279C15.0792 1.70872 14.8129 1.70838 14.416 1.70838H12.7494C12.3525 1.70838 12.0862 1.70872 11.88 1.72279Z" fill="#4483FD"/>
<path fill-rule="evenodd" clip-rule="evenodd" d="M3.14498 11.2917C2.77459 11.2917 2.46539 11.2917 2.21155 11.309C1.9473 11.327 1.69769 11.3659 1.4557 11.4662C0.894179 11.6987 0.448051 12.1449 0.215461 12.7064C0.115225 12.9484 0.076356 13.198 0.0583264 13.4622C0.041008 13.7161 0.0410119 14.0252 0.0410165 14.3956V14.4378C0.0410119 14.8081 0.041008 15.1174 0.0583264 15.3712C0.076356 15.6354 0.115225 15.885 0.215461 16.127C0.448051 16.6886 0.894179 17.1347 1.4557 17.3673C1.69769 17.4675 1.9473 17.5064 2.21155 17.5244C2.46539 17.5417 2.77459 17.5417 3.14497 17.5417H4.85373C5.22412 17.5417 5.53331 17.5417 5.78716 17.5244C6.05141 17.5064 6.30101 17.4675 6.543 17.3673C7.10452 17.1347 7.55065 16.6886 7.78324 16.127C7.88348 15.885 7.92235 15.6354 7.94038 15.3712C7.9577 15.1173 7.95769 14.8081 7.95769 14.4378V14.3957C7.95769 14.0253 7.9577 13.7161 7.94038 13.4622C7.92235 13.198 7.88348 12.9484 7.78324 12.7064C7.55065 12.1449 7.10452 11.6987 6.543 11.4662C6.30101 11.3659 6.05141 11.327 5.78716 11.309C5.53331 11.2917 5.22411 11.2917 4.85373 11.2917H3.14498ZM1.93406 12.621C1.99835 12.5944 2.09603 12.5698 2.29664 12.5561C2.50286 12.542 2.76918 12.5417 3.16602 12.5417H4.83268C5.22952 12.5417 5.49585 12.542 5.70207 12.5561C5.90267 12.5698 6.00035 12.5944 6.06465 12.621C6.31988 12.7267 6.52267 12.9295 6.62839 13.1847C6.65502 13.249 6.67959 13.3467 6.69328 13.5473C6.70735 13.7535 6.70768 14.0199 6.70768 14.4167C6.70768 14.8135 6.70735 15.0799 6.69328 15.2861C6.67959 15.4867 6.65502 15.5844 6.62839 15.6487C6.52267 15.9039 6.31988 16.1067 6.06465 16.2124C6.00035 16.2391 5.90267 16.2636 5.70207 16.2773C5.49585 16.2914 5.22952 16.2917 4.83268 16.2917H3.16602C2.76918 16.2917 2.50286 16.2914 2.29664 16.2773C2.09603 16.2636 1.99835 16.2391 1.93406 16.2124C1.67882 16.1067 1.47603 15.9039 1.37031 15.6487C1.34368 15.5844 1.31911 15.4867 1.30543 15.2861C1.29136 15.0799 1.29102 14.8135 1.29102 14.4167C1.29102 14.0199 1.29136 13.7535 1.30543 13.5473C1.31911 13.3467 1.34368 13.249 1.37031 13.1847C1.47603 12.9295 1.67882 12.7267 1.93406 12.621Z" fill="#4483FD"/>
</svg>
