<svg width="18" height="18" viewBox="0 0 18 18" fill="none" xmlns="http://www.w3.org/2000/svg">
<path fill-rule="evenodd" clip-rule="evenodd" d="M12.1247 4C12.1247 2.27411 10.7256 0.875 8.99967 0.875C7.27378 0.875 5.87468 2.27411 5.87468 4C5.87467 5.72589 7.27378 7.125 8.99967 7.125C10.7256 7.125 12.1247 5.72589 12.1247 4ZM8.99967 2.125C10.0352 2.125 10.8747 2.96447 10.8747 4C10.8747 5.03553 10.0352 5.875 8.99967 5.875C7.96414 5.875 7.12467 5.03553 7.12467 4C7.12467 2.96447 7.96414 2.125 8.99967 2.125Z" fill="#4483FD"/>
<path fill-rule="evenodd" clip-rule="evenodd" d="M6.70801 14C6.70801 12.2741 5.3089 10.875 3.58301 10.875C1.85712 10.875 0.458008 12.2741 0.458008 14C0.458008 15.7259 1.85712 17.125 3.58301 17.125C5.3089 17.125 6.70801 15.7259 6.70801 14ZM3.58301 12.125C4.61854 12.125 5.45801 12.9645 5.45801 14C5.45801 15.0355 4.61854 15.875 3.58301 15.875C2.54747 15.875 1.70801 15.0355 1.70801 14C1.70801 12.9645 2.54747 12.125 3.58301 12.125Z" fill="#4483FD"/>
<path fill-rule="evenodd" clip-rule="evenodd" d="M14.4163 10.875C16.1422 10.875 17.5413 12.2741 17.5413 14C17.5413 15.7259 16.1422 17.125 14.4163 17.125C12.6905 17.125 11.2913 15.7259 11.2913 14C11.2913 12.2741 12.6905 10.875 14.4163 10.875ZM16.2913 14C16.2913 12.9645 15.4519 12.125 14.4163 12.125C13.3808 12.125 12.5413 12.9645 12.5413 14C12.5413 15.0355 13.3808 15.875 14.4163 15.875C15.4519 15.875 16.2913 15.0355 16.2913 14Z" fill="#4483FD"/>
<path d="M5.00357 5.30192C5.26237 5.07351 5.28699 4.67855 5.05858 4.41975C4.83017 4.16096 4.43521 4.13633 4.17641 4.36475C2.66364 5.69993 1.70801 7.65543 1.70801 9.83336C1.70801 10.1785 1.98783 10.4584 2.33301 10.4584C2.67819 10.4584 2.95801 10.1785 2.95801 9.83336C2.95801 8.02895 3.74824 6.40989 5.00357 5.30192Z" fill="#4483FD"/>
<path d="M13.8229 4.36475C13.5641 4.13633 13.1692 4.16096 12.9408 4.41975C12.7124 4.67855 12.737 5.07351 12.9958 5.30192C14.2511 6.40989 15.0413 8.02895 15.0413 9.83336C15.0413 10.1785 15.3212 10.4584 15.6663 10.4584C16.0115 10.4584 16.2913 10.1785 16.2913 9.83336C16.2913 7.65543 15.3357 5.69993 13.8229 4.36475Z" fill="#4483FD"/>
<path d="M7.48879 15.6847C7.15451 15.5987 6.81377 15.7999 6.72773 16.1342C6.6417 16.4685 6.84294 16.8092 7.17722 16.8953C7.76039 17.0454 8.37118 17.125 8.99967 17.125C9.62817 17.125 10.239 17.0454 10.8221 16.8953C11.1564 16.8092 11.3577 16.4685 11.2716 16.1342C11.1856 15.7999 10.8448 15.5987 10.5106 15.6847C10.0283 15.8088 9.52218 15.875 8.99967 15.875C8.47717 15.875 7.97103 15.8088 7.48879 15.6847Z" fill="#4483FD"/>
</svg>
