<svg width="18" height="18" viewBox="0 0 18 18" fill="none" xmlns="http://www.w3.org/2000/svg">
<path d="M11.4999 8.16675C11.9602 8.16675 12.3333 7.79365 12.3333 7.33342C12.3333 6.87318 11.9602 6.50008 11.4999 6.50008C11.0397 6.50008 10.6666 6.87318 10.6666 7.33342C10.6666 7.79365 11.0397 8.16675 11.4999 8.16675Z" fill="#4483FD"/>
<path d="M7.33325 7.33342C7.33325 7.79365 6.96016 8.16675 6.49992 8.16675C6.03968 8.16675 5.66658 7.79365 5.66658 7.33342C5.66658 6.87318 6.03968 6.50008 6.49992 6.50008C6.96016 6.50008 7.33325 6.87318 7.33325 7.33342Z" fill="#4483FD"/>
<path fill-rule="evenodd" clip-rule="evenodd" d="M5.87492 3.39647V3.16675C5.87492 1.44086 7.27403 0.041748 8.99992 0.041748C10.7258 0.041748 12.1249 1.44086 12.1249 3.16675V3.39647C12.6736 3.41345 13.1622 3.44392 13.5957 3.49857C14.5968 3.62476 15.4071 3.89025 16.033 4.50158C16.2418 4.70555 16.4275 4.932 16.5865 5.17679C17.0632 5.91047 17.1647 6.7571 17.0921 7.76345C17.021 8.74835 16.7737 9.98489 16.4599 11.5541L16.444 11.6337C16.2261 12.7228 16.0528 13.5896 15.8383 14.2714C15.6174 14.9737 15.3353 15.5415 14.8634 16.0015C14.701 16.1597 14.5254 16.3036 14.3385 16.4318C13.7949 16.8043 13.1828 16.9696 12.4508 17.0485C11.7402 17.1251 10.8563 17.1251 9.74562 17.1251H8.25432C7.14366 17.1251 6.25976 17.1251 5.54912 17.0485C4.81715 16.9696 4.20504 16.8043 3.66146 16.4318C3.4745 16.3036 3.2989 16.1597 3.13658 16.0015C2.66464 15.5415 2.38253 14.9737 2.16163 14.2714C1.94715 13.5896 1.77381 12.7229 1.556 11.6338L1.5401 11.5543C1.22623 9.985 0.978903 8.74839 0.907867 7.76345C0.835286 6.7571 0.936711 5.91047 1.41341 5.17679C1.57246 4.932 1.7581 4.70555 1.96695 4.50158C2.59289 3.89025 3.40319 3.62476 4.40423 3.49857C4.83771 3.44392 5.32627 3.41346 5.87492 3.39647ZM7.12492 3.16675C7.12492 2.13121 7.96438 1.29175 8.99992 1.29175C10.0355 1.29175 10.8749 2.13121 10.8749 3.16675V3.37691C10.5214 3.37508 10.1482 3.37508 9.75451 3.37508H8.24543C7.85168 3.37508 7.47846 3.37508 7.12492 3.37691V3.16675ZM2.84033 5.39584C3.1857 5.05854 3.6803 4.84972 4.56057 4.73875C5.45298 4.62626 6.63517 4.62508 8.29041 4.62508H9.70953C11.3648 4.62508 12.547 4.62626 13.4394 4.73875C14.3196 4.84972 14.8142 5.05854 15.1596 5.39584C15.3025 5.5354 15.4295 5.69034 15.5384 5.85783C15.8014 6.26264 15.9091 6.7886 15.8453 7.67353C15.7806 8.57068 15.5499 9.73014 15.2253 11.3532C14.9988 12.4857 14.8378 13.2862 14.6459 13.8963C14.4581 14.4934 14.2585 14.8455 13.9909 15.1063C13.8799 15.2145 13.7597 15.313 13.6318 15.4007C13.3236 15.612 12.9391 15.7386 12.3169 15.8057C11.681 15.8742 10.8644 15.8751 9.70953 15.8751H8.29041C7.13551 15.8751 6.31896 15.8742 5.68307 15.8057C5.06081 15.7386 4.67639 15.612 4.36815 15.4007C4.24023 15.313 4.12008 15.2145 4.00902 15.1063C3.74141 14.8455 3.54182 14.4934 3.35402 13.8963C3.16211 13.2862 3.00114 12.4857 2.77465 11.3532C2.45003 9.73014 2.21933 8.57068 2.15463 7.67353C2.0908 6.7886 2.19857 6.26264 2.46159 5.85783C2.57042 5.69034 2.69743 5.5354 2.84033 5.39584Z" fill="#4483FD"/>
</svg>
