<svg width="18" height="18" viewBox="0 0 18 18" fill="none" xmlns="http://www.w3.org/2000/svg">
<path fill-rule="evenodd" clip-rule="evenodd" d="M9.00041 5.87508C7.27452 5.87508 5.87541 7.27419 5.87541 9.00008C5.87541 10.726 7.27452 12.1251 9.00041 12.1251C10.7263 12.1251 12.1254 10.726 12.1254 9.00008C12.1254 7.27419 10.7263 5.87508 9.00041 5.87508ZM7.12541 9.00008C7.12541 7.96455 7.96488 7.12508 9.00041 7.12508C10.0359 7.12508 10.8754 7.96455 10.8754 9.00008C10.8754 10.0356 10.0359 10.8751 9.00041 10.8751C7.96488 10.8751 7.12541 10.0356 7.12541 9.00008Z" fill="#4483FD"/>
<path fill-rule="evenodd" clip-rule="evenodd" d="M8.97936 0.0417483C8.60897 0.0417422 8.29977 0.041737 8.04593 0.0590567C7.78168 0.0770863 7.53208 0.115955 7.29008 0.216191C6.72856 0.448782 6.28243 0.894909 6.04984 1.45643C5.92876 1.74876 5.89596 2.05685 5.88344 2.39172C5.87337 2.66091 5.73752 2.88551 5.53703 3.00126C5.33655 3.11701 5.07411 3.12236 4.83596 2.99648C4.53969 2.83989 4.25648 2.71424 3.94277 2.67294C3.34018 2.59361 2.73076 2.7569 2.24857 3.1269C2.04076 3.28635 1.8823 3.48308 1.73456 3.70292C1.59264 3.91409 1.43805 4.18187 1.25286 4.50264L1.23181 4.53909C1.04662 4.85984 0.892013 5.12761 0.780091 5.35611C0.66358 5.59397 0.572439 5.82957 0.538251 6.08926C0.458919 6.69185 0.622213 7.30127 0.99221 7.78346C1.18481 8.03446 1.43518 8.21688 1.71888 8.39514C1.94703 8.53849 2.07364 8.76851 2.07363 9.00007C2.07361 9.2316 1.94701 9.46158 1.71889 9.60491C1.43515 9.78319 1.18475 9.96563 0.992129 10.2166C0.622131 10.6988 0.458837 11.3083 0.538169 11.9108C0.572358 12.1705 0.663499 12.4061 0.780009 12.644C0.89193 12.8725 1.04653 13.1403 1.23172 13.461L1.25277 13.4975C1.43796 13.8182 1.59256 14.086 1.73448 14.2972C1.88222 14.517 2.04068 14.7138 2.24849 14.8732C2.73068 15.2432 3.3401 15.4065 3.94269 15.3272C4.25638 15.2859 4.53957 15.1602 4.83583 15.0037C5.07402 14.8778 5.33648 14.8831 5.53699 14.9989C5.7375 15.1146 5.87337 15.3393 5.88344 15.6085C5.89597 15.9433 5.92876 16.2514 6.04984 16.5437C6.28243 17.1053 6.72856 17.5514 7.29008 17.784C7.53208 17.8842 7.78168 17.9231 8.04593 17.9411C8.29977 17.9584 8.60897 17.9584 8.97935 17.9584H9.02145C9.39183 17.9584 9.70103 17.9584 9.95487 17.9411C10.2191 17.9231 10.4687 17.8842 10.7107 17.784C11.2722 17.5514 11.7184 17.1053 11.951 16.5437C12.072 16.2514 12.1048 15.9433 12.1174 15.6084C12.1274 15.3392 12.2633 15.1146 12.4638 14.9989C12.6643 14.8831 12.9267 14.8777 13.1649 15.0036C13.4612 15.1602 13.7443 15.2858 14.058 15.3271C14.6606 15.4064 15.27 15.2431 15.7522 14.8731C15.96 14.7137 16.1185 14.517 16.2662 14.2971C16.4082 14.086 16.5627 13.8182 16.7479 13.4975L16.769 13.461C16.9542 13.1403 17.1088 12.8724 17.2207 12.6439C17.3372 12.4061 17.4284 12.1705 17.4626 11.9108C17.5419 11.3082 17.3786 10.6988 17.0086 10.2166C16.816 9.96558 16.5656 9.78315 16.2819 9.60488C16.0538 9.46155 15.9272 9.23156 15.9272 9.00004C15.9272 8.76854 16.0538 8.53859 16.2819 8.39528C16.5656 8.217 16.816 8.03455 17.0087 7.78351C17.3787 7.30132 17.542 6.6919 17.4626 6.08932C17.4284 5.82963 17.3373 5.59403 17.2208 5.35617C17.1089 5.12769 16.9543 4.85994 16.7691 4.53921L16.748 4.50273C16.5629 4.18196 16.4082 3.91415 16.2663 3.70297C16.1186 3.48314 15.9601 3.28641 15.7523 3.12696C15.2701 2.75696 14.6607 2.59367 14.0581 2.673C13.7444 2.7143 13.4612 2.83993 13.165 2.99651C12.9268 3.1224 12.6643 3.11705 12.4638 3.00128C12.2633 2.88552 12.1274 2.66089 12.1174 2.39167C12.1048 2.05682 12.072 1.74875 11.951 1.45643C11.7184 0.894909 11.2722 0.448781 10.7107 0.216191C10.4687 0.115955 10.2191 0.0770863 9.95487 0.0590567C9.70103 0.041737 9.39183 0.0417422 9.02144 0.0417483H8.97936ZM7.76844 1.37104C7.83273 1.34441 7.93041 1.31984 8.13102 1.30616C8.33724 1.29209 8.60356 1.29175 9.0004 1.29175C9.39724 1.29175 9.66356 1.29209 9.86978 1.30616C10.0704 1.31984 10.1681 1.34441 10.2324 1.37104C10.4876 1.47676 10.6904 1.67955 10.7961 1.93479C10.8295 2.0153 10.8571 2.14081 10.8682 2.43839C10.8929 3.0987 11.2338 3.73449 11.8388 4.08382C12.4439 4.43315 13.1649 4.41042 13.7491 4.10165C14.0124 3.9625 14.1349 3.92368 14.2213 3.91231C14.4952 3.87625 14.7722 3.95047 14.9914 4.11865C15.0466 4.16102 15.1167 4.23333 15.2288 4.40021C15.3441 4.57177 15.4776 4.80225 15.676 5.14592C15.8744 5.48959 16.0073 5.7204 16.0982 5.90603C16.1867 6.0866 16.2142 6.18348 16.2233 6.25247C16.2594 6.52638 16.1852 6.80339 16.017 7.02256C15.9639 7.09171 15.869 7.17841 15.6169 7.33686C15.0574 7.68838 14.6772 8.30137 14.6772 8.99997C14.6771 9.69865 15.0573 10.3117 15.6168 10.6633C15.869 10.8217 15.9638 10.9084 16.0169 10.9775C16.1851 11.1967 16.2593 11.4737 16.2232 11.7476C16.2142 11.8166 16.1866 11.9135 16.0981 12.0941C16.0072 12.2797 15.8744 12.5105 15.6759 12.8542C15.4775 13.1979 15.3441 13.4283 15.2288 13.5999C15.1166 13.7668 15.0465 13.8391 14.9913 13.8815C14.7721 14.0496 14.4951 14.1239 14.2212 14.0878C14.1348 14.0764 14.0123 14.0376 13.749 13.8985C13.1648 13.5897 12.4438 13.567 11.8387 13.9164C11.2337 14.2657 10.8929 14.9014 10.8682 15.5617C10.8571 15.8593 10.8295 15.9849 10.7961 16.0654C10.6904 16.3206 10.4876 16.5234 10.2324 16.6291C10.1681 16.6558 10.0704 16.6803 9.86978 16.694C9.66356 16.7081 9.39724 16.7084 9.0004 16.7084C8.60356 16.7084 8.33724 16.7081 8.13102 16.694C7.93041 16.6803 7.83273 16.6558 7.76844 16.6291C7.5132 16.5234 7.31042 16.3206 7.20469 16.0654C7.17134 15.9849 7.1437 15.8594 7.13257 15.5618C7.10787 14.9015 6.76705 14.2657 6.16199 13.9163C5.55694 13.567 4.83592 13.5897 4.25172 13.8985C3.98845 14.0377 3.86593 14.0765 3.77953 14.0879C3.50563 14.1239 3.22861 14.0497 3.00944 13.8815C2.95423 13.8391 2.88411 13.7668 2.77196 13.6C2.65666 13.4284 2.52321 13.1979 2.32479 12.8542C2.12637 12.5106 1.9935 12.2798 1.90257 12.0941C1.81413 11.9136 1.78656 11.8167 1.77748 11.7477C1.74142 11.4738 1.81564 11.1968 1.98382 10.9776C2.03687 10.9085 2.13175 10.8218 2.38391 10.6633C2.94339 10.3118 3.32359 9.69877 3.32363 9.00013C3.32366 8.30142 2.94345 7.68831 2.38392 7.33673C2.13181 7.17833 2.03695 7.09164 1.9839 7.02251C1.81572 6.80333 1.7415 6.52632 1.77756 6.25242C1.78664 6.18342 1.81421 6.08654 1.90266 5.90597C1.99358 5.72034 2.12645 5.48953 2.32487 5.14586C2.52329 4.80219 2.65674 4.57171 2.77204 4.40016C2.88419 4.23327 2.95431 4.16096 3.00952 4.11859C3.2287 3.95041 3.50571 3.87619 3.77961 3.91225C3.86602 3.92362 3.98854 3.96244 4.25185 4.10161C4.83602 4.41037 5.557 4.4331 6.16203 4.08379C6.76706 3.73448 7.10788 3.09872 7.13257 2.43843C7.1437 2.14082 7.17134 2.0153 7.20469 1.93479C7.31041 1.67955 7.5132 1.47676 7.76844 1.37104Z" fill="#4483FD"/>
</svg>
