<svg width="18" height="18" viewBox="0 0 18 18" fill="none" xmlns="http://www.w3.org/2000/svg">
<path fill-rule="evenodd" clip-rule="evenodd" d="M8.40973 1.75682C8.08162 2.18528 7.71127 2.84634 7.17332 3.81137L6.90024 4.30126C6.88378 4.33078 6.86752 4.36004 6.85143 4.389C6.60081 4.84 6.38929 5.22066 6.04846 5.4794C5.70395 5.74092 5.28397 5.83531 4.79588 5.94499C4.76451 5.95204 4.73286 5.95916 4.70093 5.96638L4.17064 6.08636C3.12454 6.32305 2.41289 6.48591 1.92544 6.678C1.44977 6.86546 1.34937 7.01904 1.3111 7.14211C1.2707 7.272 1.2695 7.47068 1.55387 7.92241C1.84249 8.38089 2.32941 8.95277 3.04152 9.78549L3.40303 10.2082C3.42404 10.2328 3.44487 10.2571 3.46548 10.2811C3.80132 10.6729 4.08135 10.9995 4.2098 11.4126C4.33747 11.8232 4.29516 12.2546 4.24385 12.7777C4.2407 12.8098 4.23752 12.8422 4.23434 12.875L4.17968 13.439C4.07211 14.5492 3.99957 15.3136 4.0241 15.8642C4.04858 16.4138 4.16467 16.5657 4.25696 16.6358C4.33905 16.6981 4.4908 16.7671 4.98516 16.6254C5.48754 16.4815 6.15525 16.176 7.13477 15.725L7.63128 15.4964C7.66186 15.4823 7.69215 15.4683 7.72217 15.4544C8.17617 15.2445 8.57004 15.0625 8.99977 15.0625C9.4295 15.0625 9.82337 15.2445 10.2774 15.4544C10.3074 15.4683 10.3377 15.4823 10.3683 15.4964L10.8648 15.725C11.8443 16.176 12.512 16.4815 13.0144 16.6254C13.5087 16.7671 13.6605 16.6981 13.7426 16.6358C13.8349 16.5657 13.951 16.4138 13.9754 15.8642C14 15.3136 13.9274 14.5492 13.8199 13.439L13.7652 12.875C13.762 12.8422 13.7588 12.8098 13.7557 12.7777C13.7044 12.2546 13.6621 11.8232 13.7897 11.4126C13.9182 10.9995 14.1982 10.6729 14.5341 10.2811C14.5547 10.2571 14.5755 10.2328 14.5965 10.2082L14.958 9.78548C15.6701 8.95277 16.157 8.38089 16.4457 7.92241C16.73 7.47068 16.7288 7.272 16.6884 7.14211C16.6502 7.01904 16.5498 6.86546 16.0741 6.678C15.5867 6.48591 14.875 6.32305 13.8289 6.08636L13.2986 5.96638C13.2667 5.95915 13.235 5.95204 13.2037 5.94499C12.7156 5.83531 12.2956 5.74092 11.9511 5.4794C11.6102 5.22066 11.3987 4.84 11.1481 4.389C11.132 4.36003 11.1158 4.33078 11.0993 4.30126L10.8262 3.81137C10.2883 2.84634 9.91791 2.18528 9.5898 1.75682C9.26201 1.32877 9.09457 1.29175 8.99977 1.29175C8.90497 1.29175 8.73753 1.32877 8.40973 1.75682ZM7.41731 0.996829C7.81454 0.478107 8.30552 0.041748 8.99977 0.041748C9.69402 0.041748 10.185 0.478107 10.5822 0.996828C10.9726 1.50652 11.3864 2.24905 11.8923 3.15655L12.1911 3.69263C12.5182 4.27944 12.6019 4.4041 12.7069 4.48378C12.8079 4.56048 12.9383 4.60325 13.5745 4.7472L14.1578 4.87918C15.1375 5.10082 15.9446 5.28341 16.5324 5.51505C17.1426 5.75551 17.6765 6.10991 17.8821 6.77093C18.0855 7.42514 17.8569 8.02702 17.5035 8.58834C17.1602 9.13373 16.6118 9.77495 15.9419 10.5582L15.5465 11.0206C15.1157 11.5244 15.0257 11.6477 14.9834 11.7838C14.9402 11.9225 14.9443 12.0828 15.0094 12.7544L15.069 13.3695C15.1704 14.4162 15.2532 15.2698 15.2242 15.9198C15.1947 16.5815 15.0444 17.2169 14.4984 17.6314C13.9421 18.0537 13.2949 18.0061 12.6701 17.8271C12.0642 17.6535 11.309 17.3057 10.3918 16.8834L9.84547 16.6318C9.24769 16.3566 9.11971 16.3125 8.99977 16.3125C8.87983 16.3125 8.75185 16.3566 8.15407 16.6318L7.60769 16.8834C6.69057 17.3057 5.9353 17.6535 5.32946 17.8271C4.70465 18.0061 4.05742 18.0537 3.50116 17.6314C2.95509 17.2169 2.80481 16.5815 2.77534 15.9198C2.74638 15.2698 2.82911 14.4162 2.93056 13.3695L2.99017 12.7544C3.05526 12.0828 3.05931 11.9225 3.01618 11.7838C2.97387 11.6477 2.88387 11.5244 2.45303 11.0206L2.05763 10.5583C1.38775 9.77497 0.839362 9.13373 0.496027 8.58834C0.142668 8.02702 -0.0859624 7.42514 0.117477 6.77093C0.323035 6.10991 0.856978 5.75551 1.46714 5.51505C2.05494 5.28341 2.86204 5.10082 3.84174 4.87918L3.89479 4.86718L4.42508 4.7472C5.06128 4.60325 5.19162 4.56048 5.29265 4.48378C5.39761 4.4041 5.4813 4.27944 5.80841 3.69263L6.10725 3.15654C6.6131 2.24905 7.02699 1.50652 7.41731 0.996829Z" fill="#4483FD"/>
</svg>
