<svg width="18" height="18" viewBox="0 0 18 18" fill="none" xmlns="http://www.w3.org/2000/svg">
<path fill-rule="evenodd" clip-rule="evenodd" d="M6.49935 0.041626C4.31322 0.041626 2.54102 1.81383 2.54102 3.99996C2.54102 6.18609 4.31322 7.95829 6.49935 7.95829C8.68548 7.95829 10.4577 6.18609 10.4577 3.99996C10.4577 1.81383 8.68548 0.041626 6.49935 0.041626ZM3.79102 3.99996C3.79102 2.50419 5.00358 1.29163 6.49935 1.29163C7.99512 1.29163 9.20768 2.50419 9.20768 3.99996C9.20768 5.49573 7.99512 6.70829 6.49935 6.70829C5.00358 6.70829 3.79102 5.49573 3.79102 3.99996Z" fill="#4483FD"/>
<path d="M11.4993 0.874959C11.1542 0.874959 10.8743 1.15478 10.8743 1.49996C10.8743 1.84514 11.1542 2.12496 11.4993 2.12496C12.5349 2.12496 13.3743 2.96443 13.3743 3.99996C13.3743 5.03549 12.5349 5.87496 11.4993 5.87496C11.1542 5.87496 10.8743 6.15478 10.8743 6.49996C10.8743 6.84514 11.1542 7.12496 11.4993 7.12496C13.2252 7.12496 14.6243 5.72585 14.6243 3.99996C14.6243 2.27407 13.2252 0.874959 11.4993 0.874959Z" fill="#4483FD"/>
<path fill-rule="evenodd" clip-rule="evenodd" d="M2.06447 10.267C3.23061 9.60059 4.7999 9.20829 6.49935 9.20829C8.19879 9.20829 9.76808 9.60059 10.9342 10.267C12.0827 10.9232 12.9577 11.9251 12.9577 13.1666C12.9577 14.4082 12.0827 15.41 10.9342 16.0663C9.76808 16.7327 8.19879 17.125 6.49935 17.125C4.7999 17.125 3.23061 16.7327 2.06447 16.0663C0.916013 15.41 0.0410156 14.4082 0.0410156 13.1666C0.0410156 11.9251 0.916013 10.9232 2.06447 10.267ZM2.68465 11.3523C1.72185 11.9024 1.29102 12.5672 1.29102 13.1666C1.29102 13.766 1.72185 14.4308 2.68465 14.981C3.62976 15.5211 4.97713 15.875 6.49935 15.875C8.02156 15.875 9.36894 15.5211 10.3141 14.981C11.2768 14.4308 11.7077 13.766 11.7077 13.1666C11.7077 12.5672 11.2768 11.9024 10.3141 11.3523C9.36894 10.8122 8.02156 10.4583 6.49935 10.4583C4.97713 10.4583 3.62976 10.8122 2.68465 11.3523Z" fill="#4483FD"/>
<path d="M14.1332 10.0561C13.7961 9.9822 13.4628 10.1956 13.3889 10.5327C13.3149 10.8699 13.5283 11.2032 13.8655 11.2771C14.5258 11.4219 15.0535 11.6706 15.4017 11.9556C15.7505 12.241 15.8743 12.5197 15.8743 12.75C15.8743 12.9589 15.7738 13.2042 15.4968 13.4615C15.2177 13.7208 14.7889 13.9603 14.2358 14.1269C13.9053 14.2264 13.718 14.575 13.8176 14.9055C13.9171 15.236 14.2657 15.4233 14.5962 15.3238C15.2817 15.1174 15.8946 14.7981 16.3475 14.3774C16.8025 13.9547 17.1243 13.3988 17.1243 12.75C17.1243 12.0293 16.7291 11.4267 16.1934 10.9882C15.6571 10.5494 14.9348 10.2319 14.1332 10.0561Z" fill="#4483FD"/>
</svg>
